<svg width="12" height="20" viewBox="0 0 12 20" fill="none" xmlns="http://www.w3.org/2000/svg">
<path d="M11.324 1.00019H8.72399C8.09004 0.94658 7.45196 1.02962 6.85285 1.2437C6.25374 1.45778 5.70753 1.79793 5.25112 2.24116C4.79471 2.6844 4.43872 3.2204 4.20719 3.81299C3.97565 4.40558 3.87396 5.04094 3.90899 5.67619V7.83219H1.29499C1.1894 7.82977 1.08714 7.8692 1.01052 7.94189C0.933893 8.01458 0.889127 8.11462 0.885986 8.22019V11.3442C0.889385 11.4496 0.934264 11.5494 1.01086 11.6218C1.08745 11.6943 1.18957 11.7336 1.29499 11.7312H3.90899V19.6132C3.91239 19.7186 3.95726 19.8184 4.03386 19.8908C4.11045 19.9633 4.21257 20.0026 4.31799 20.0002H7.73099C7.83641 20.0026 7.93852 19.9633 8.01512 19.8908C8.09171 19.8184 8.13659 19.7186 8.13999 19.6132V11.7312H11.198C11.3034 11.7336 11.4055 11.6943 11.4821 11.6218C11.5587 11.5494 11.6036 11.4496 11.607 11.3442V8.21919C11.6067 8.16776 11.5959 8.11693 11.5752 8.06982C11.5546 8.0227 11.5246 7.9803 11.487 7.94519C11.4087 7.87174 11.3053 7.83096 11.198 7.83119H8.14199V6.00019C8.14199 5.12219 8.36299 4.67619 9.57099 4.67619H11.324C11.4294 4.67862 11.5315 4.63932 11.6081 4.56685C11.6847 4.49437 11.7296 4.39459 11.733 4.28919V1.39119C11.7318 1.33866 11.7203 1.28687 11.6991 1.23879C11.6779 1.1907 11.6475 1.14727 11.6095 1.11096C11.5715 1.07465 11.5267 1.04617 11.4778 1.02717C11.4288 1.00816 11.3765 0.998998 11.324 1.00019Z" fill="#929292"/>
</svg>
