<svg width="9" height="9" viewBox="0 0 9 9" fill="none" xmlns="http://www.w3.org/2000/svg">
<path d="M5.32454 4.49998L8.82897 0.995448C9.05703 0.767493 9.05703 0.398921 8.82897 0.170966C8.60101 -0.0569887 8.23244 -0.0569887 8.00448 0.170966L4.49995 3.67549L0.995529 0.170966C0.767467 -0.0569887 0.399002 -0.0569887 0.171046 0.170966C-0.0570155 0.398921 -0.0570155 0.767493 0.171046 0.995448L3.67547 4.49998L0.171046 8.0045C-0.0570155 8.23246 -0.0570155 8.60103 0.171046 8.82899C0.28465 8.9427 0.434022 8.99982 0.583288 8.99982C0.732553 8.99982 0.881818 8.9427 0.995529 8.82899L4.49995 5.32446L8.00448 8.82899C8.11819 8.9427 8.26746 8.99982 8.41673 8.99982C8.56599 8.99982 8.71526 8.9427 8.82897 8.82899C9.05703 8.60103 9.05703 8.23246 8.82897 8.0045L5.32454 4.49998Z" fill="#6E6D7A"/>
</svg>
