<?xml version="1.0" encoding="utf-8"?>
<!-- Generator: Adobe Illustrator 23.0.3, SVG Export Plug-In . SVG Version: 6.00 Build 0)  -->
<svg version="1.1" id="Layer_1" xmlns="http://www.w3.org/2000/svg" xmlns:xlink="http://www.w3.org/1999/xlink" x="0px" y="0px"
	 viewBox="0 0 512 512" style="enable-background:new 0 0 512 512;" xml:space="preserve">
<style type="text/css">
	.st0{opacity:0.4;}
	.st1{fill:#FFFFFF;}
</style>
<g>
	<path class="st0" d="M411,505.6H101c-33.1,0-59.9-26.8-59.9-59.9V67.1C41.1,34,67.9,7.2,101,7.2H411c33.1,0,59.9,26.8,59.9,59.9
		v378.6C470.9,478.8,444.1,505.6,411,505.6z"/>
	<g>
		<path class="st1" d="M336.5,246.9l-149.3-96c-3.3-2.2-7.5-2.3-10.9-0.4c-3.4,1.9-5.6,5.5-5.6,9.4v192c0,3.9,2.1,7.5,5.6,9.4
			c1.6,0.9,3.4,1.3,5.1,1.3c2,0,4-0.6,5.8-1.7l149.3-96c3-2,4.9-5.3,4.9-9S339.5,248.8,336.5,246.9z M187.4,342.3v-173l131.4,86.5
			L187.4,342.3z"/>
	</g>
	<g>
		<path class="st1" d="M422.4,511H89.6c-29.4,0-53.3-23.9-53.3-53.3V54.2C36.3,24.9,60.2,1,89.6,1h332.8c29.4,0,53.3,23.9,53.3,53.3
			v403.6C475.7,487.1,451.8,511,422.4,511z M89.6,17.5c-20.3,0-36.8,16.5-36.8,36.8v403.6c0,20.3,16.5,36.8,36.8,36.8h332.8
			c20.3,0,36.8-16.5,36.8-36.8V54.2c0-20.3-16.5-36.8-36.8-36.8H89.6z"/>
	</g>
</g>
</svg>
