<svg width="21" height="21" viewBox="0 0 21 21" fill="none" xmlns="http://www.w3.org/2000/svg">
<path d="M19.855 20.672C19.7583 20.6729 19.6624 20.6544 19.5731 20.6175C19.4837 20.5805 19.4027 20.5259 19.335 20.457L14.486 15.605C12.8999 16.9299 10.8987 17.6555 8.83197 17.655C7.6722 17.6582 6.52331 17.4313 5.45185 16.9874C4.38039 16.5435 3.40765 15.8915 2.58997 15.069C1.76634 14.2522 1.11324 13.2798 0.668618 12.2084C0.223993 11.137 -0.00329002 9.98795 -2.63803e-05 8.82797C-0.00328183 7.6682 0.223611 6.51931 0.667507 5.44785C1.1114 4.37638 1.76348 3.40365 2.58597 2.58597C3.40365 1.76348 4.37639 1.1114 5.44785 0.667506C6.51931 0.22361 7.6682 -0.00328194 8.82797 -2.6494e-05C9.98758 -0.00314956 11.1363 0.223806 12.2076 0.667699C13.2788 1.11159 14.2514 1.7636 15.069 2.58597C15.8912 3.40388 16.543 4.37666 16.9869 5.44807C17.4308 6.51948 17.6578 7.66826 17.655 8.82797C17.6574 10.895 16.9316 12.8968 15.605 14.482L20.457 19.334C20.5258 19.4025 20.5805 19.4839 20.6177 19.5735C20.655 19.6632 20.6742 19.7594 20.6742 19.8565C20.6742 19.9536 20.655 20.0497 20.6177 20.1394C20.5805 20.2291 20.5258 20.3105 20.457 20.379L20.375 20.461C20.2358 20.5965 20.0492 20.6722 19.855 20.672ZM14.514 14.572L19.855 19.917L19.918 19.854L14.576 14.513L14.815 14.247C16.1596 12.7611 16.9028 10.8279 16.9 8.82397C16.8976 6.68342 16.0465 4.63114 14.5334 3.11707C13.0203 1.60299 10.9685 0.750678 8.82797 0.746973C6.68669 0.751205 4.63438 1.60397 3.12064 3.11847C1.6069 4.63296 0.755145 6.68569 0.751973 8.82697C0.755413 10.9675 1.60748 13.0194 3.12136 14.5327C4.63524 16.046 6.68742 16.8973 8.82797 16.9C10.8323 16.9 12.7651 16.1551 14.251 14.81L14.514 14.572ZM8.82797 16.81C7.77909 16.8128 6.74003 16.6078 5.7708 16.2069C4.80156 15.8059 3.92135 15.217 3.18097 14.474C2.43811 13.7337 1.84922 12.8537 1.44828 11.8846C1.04734 10.9156 0.842292 9.87669 0.844974 8.82797C0.84216 7.77909 1.04714 6.74003 1.44809 5.7708C1.84903 4.80156 2.43799 3.92135 3.18097 3.18097C3.92112 2.43768 4.80129 1.84851 5.77057 1.44755C6.73986 1.04658 7.77903 0.841773 8.82797 0.844973C9.87669 0.842291 10.9156 1.04734 11.8846 1.44828C12.8537 1.84922 13.7337 2.43811 14.474 3.18097C15.2173 3.92111 15.8064 4.80128 16.2074 5.77057C16.6084 6.73986 16.8132 7.77903 16.81 8.82797C16.8076 10.9442 15.9659 12.9731 14.4695 14.4695C12.9731 15.9659 10.9442 16.8076 8.82797 16.81ZM8.82797 1.59597C6.91119 1.59889 5.07381 2.36189 3.71881 3.71763C2.36381 5.07338 1.60183 6.91119 1.59997 8.82797C1.60209 10.7446 2.36419 12.5821 3.71916 13.9377C5.07413 15.2932 6.91136 16.0561 8.82797 16.059C10.7451 16.0569 12.5831 15.2943 13.9387 13.9387C15.2943 12.5831 16.0569 10.7451 16.059 8.82797C16.0561 6.91136 15.2932 5.07413 13.9377 3.71916C12.5821 2.36419 10.7446 1.60209 8.82797 1.59997V1.59597Z" fill="#333"/>
</svg>
