<svg width="11" height="20" viewBox="0 0 11 20" fill="none" xmlns="http://www.w3.org/2000/svg">
<path d="M10.438 0.0158183H7.838C7.20405 -0.0377948 6.56598 0.0452436 5.96686 0.259326C5.36775 0.473409 4.82155 0.813551 4.36514 1.25679C3.90873 1.70002 3.55274 2.23603 3.3212 2.82861C3.08966 3.4212 2.98798 4.05657 3.023 4.69182V6.84782H0.409C0.303413 6.84539 0.201152 6.88483 0.124529 6.95752C0.0479062 7.03021 0.00314067 7.13025 0 7.23582V10.3598C0.00339911 10.4652 0.0482778 10.565 0.124872 10.6375C0.201467 10.7099 0.303581 10.7492 0.409 10.7468H3.023V18.6288C3.0264 18.7342 3.07128 18.834 3.14787 18.9065C3.22447 18.9789 3.32658 19.0182 3.432 19.0158H6.845C6.95042 19.0182 7.05254 18.9789 7.12913 18.9065C7.20572 18.834 7.2506 18.7342 7.254 18.6288V10.7468H10.312C10.4174 10.7492 10.5195 10.7099 10.5961 10.6375C10.6727 10.565 10.7176 10.4652 10.721 10.3598V7.23482C10.7207 7.18339 10.7099 7.13256 10.6893 7.08544C10.6686 7.03833 10.6386 6.99592 10.601 6.96082C10.5227 6.88736 10.4193 6.84658 10.312 6.84682H7.256V5.01582C7.256 4.13782 7.477 3.69182 8.685 3.69182H10.438C10.5434 3.69425 10.6455 3.65495 10.7221 3.58247C10.7987 3.51 10.8436 3.41021 10.847 3.30482V0.406818C10.8458 0.354285 10.8343 0.302498 10.8131 0.254414C10.7919 0.20633 10.7615 0.162892 10.7235 0.126581C10.6855 0.090271 10.6408 0.0618 10.5918 0.0427949C10.5428 0.0237898 10.4905 0.014623 10.438 0.0158183Z" fill="#3E8FE1"/>
</svg>
