<svg width="21" height="18" viewBox="0 0 21 18" fill="none" xmlns="http://www.w3.org/2000/svg">
<path d="M1.29219 7.56407L13.7922 2.41407C15.0292 1.87307 19.2052 0.156068 19.2052 0.156068C19.2052 0.156068 21.1382 -0.601931 20.9682 1.22307C20.9222 1.98107 20.4892 4.59507 20.0552 7.44107L18.7092 15.8701C18.7092 15.8701 18.5992 17.1081 17.6872 17.3241C16.7752 17.5401 15.2742 16.5661 15.0112 16.3651C14.7942 16.2101 10.9902 13.7981 9.59819 12.6071C9.45692 12.5108 9.34209 12.3806 9.26422 12.2284C9.18635 12.0762 9.14795 11.9069 9.15253 11.736C9.15711 11.5651 9.20452 11.3981 9.29042 11.2503C9.37633 11.1025 9.49797 10.9786 9.64419 10.8901C11.5772 9.12707 13.8822 6.91507 15.2742 5.52307C15.9242 4.87307 16.5582 3.37307 13.8822 5.19807L6.31919 10.2871C5.93169 10.4635 5.51215 10.5586 5.08646 10.5665C4.66077 10.5744 4.23797 10.495 3.84419 10.3331C2.23519 9.85407 0.364189 9.20407 0.364189 9.20407C0.364189 9.20407 -0.903809 8.41507 1.29219 7.56507V7.56407Z" fill="#3E8FE1"/>
</svg>
