<svg width="18" height="18" viewBox="0 0 18 18" fill="none" xmlns="http://www.w3.org/2000/svg">
<g clip-path="url(#clip0)">
<path d="M13.029 0H4.97102C2.22472 0 0 2.22472 0 4.97102V13.0396C0 15.7753 2.22472 18.0106 4.97102 18.0106H13.0396C15.7753 18.0106 18.0106 15.7859 18.0106 13.0396V4.97102C18 2.22472 15.7646 0 13.029 0ZM13.029 16.4033H4.97102C3.10822 16.4033 1.59669 14.8918 1.59669 13.029V4.97102C1.59669 3.10822 3.10822 1.59669 4.97102 1.59669H13.0396C14.9024 1.59669 16.414 3.10822 16.414 4.97102V13.0396C16.4033 14.8918 14.8918 16.4033 13.029 16.4033Z" fill="#3E8FE1"/>
<path d="M8.99465 4.36426C6.43995 4.36426 4.36426 6.43995 4.36426 8.99465C4.36426 11.5494 6.43995 13.6357 9.0053 13.6357C11.5706 13.6357 13.6463 11.56 13.6463 8.99465C13.6357 6.43995 11.56 4.36426 8.99465 4.36426ZM8.99465 12.039C7.32345 12.039 5.9503 10.6765 5.9503 8.99465C5.96095 7.32345 7.32345 5.96095 8.99465 5.96095C10.6659 5.96095 12.039 7.32345 12.039 9.0053C12.039 10.6765 10.6765 12.039 8.99465 12.039Z" fill="#3E8FE1"/>
<path d="M13.8273 3.01245C13.5186 3.01245 13.2205 3.14019 12.997 3.35308C12.7735 3.56597 12.6564 3.87466 12.6564 4.18336C12.6564 4.49205 12.7841 4.7901 12.997 5.01363C13.2099 5.22653 13.5186 5.35426 13.8273 5.35426C14.136 5.35426 14.434 5.22653 14.6576 5.01363C14.8811 4.7901 14.9982 4.49205 14.9982 4.18336C14.9982 3.87466 14.8704 3.57661 14.6576 3.35308C14.4447 3.12954 14.136 3.01245 13.8273 3.01245Z" fill="#3E8FE1"/>
</g>
<defs>
<clipPath id="clip0">
<rect width="18" height="18" fill="white"/>
</clipPath>
</defs>
</svg>
