<svg width="9" height="5" viewBox="0 0 9 5" fill="none" xmlns="http://www.w3.org/2000/svg">
<path d="M0.000976562 0.447021C0.00145435 0.328608 0.048131 0.215178 0.130848 0.131417C0.171889 0.0897424 0.220657 0.0566769 0.274355 0.0341149C0.328053 0.0115529 0.385625 -6.10352e-05 0.443768 -6.10352e-05C0.50191 -6.10352e-05 0.559481 0.0115529 0.613178 0.0341149C0.666876 0.0566769 0.715645 0.0897424 0.756686 0.131417L4.50046 3.92074L8.24527 0.133485C8.28631 0.0918108 8.33508 0.0587453 8.38877 0.0361833C8.44247 0.0136213 8.50004 0.00200736 8.55819 0.00200736C8.61633 0.00200736 8.6739 0.0136213 8.7276 0.0361833C8.78129 0.0587453 8.83006 0.0918108 8.8711 0.133485C8.9122 0.174863 8.94483 0.224037 8.96711 0.278194C8.9894 0.332351 9.00091 0.390426 9.00098 0.44909C8.99949 0.565774 8.95286 0.677224 8.8711 0.759523L4.80725 4.87066C4.72571 4.95282 4.61553 4.99927 4.50046 5C4.44329 4.99965 4.38675 4.98785 4.3341 4.9653C4.28145 4.94274 4.23373 4.90988 4.19368 4.86859L0.133916 0.764694C0.0917406 0.723544 0.0582237 0.67419 0.0353775 0.619598C0.0125322 0.565007 0.00083065 0.506305 0.000976562 0.447021ZM8.6042 0.447021C8.60437 0.440776 8.60318 0.434572 8.6007 0.428848C8.59823 0.423124 8.59454 0.418023 8.58989 0.413911C8.58578 0.409592 8.58086 0.406153 8.57541 0.403806C8.56997 0.401459 8.56411 0.400253 8.55819 0.400253C8.55226 0.400253 8.54641 0.401459 8.54096 0.403806C8.53551 0.406153 8.53059 0.409592 8.52648 0.413911L4.50046 4.48986L0.474445 0.413911C0.465844 0.404916 0.454087 0.399712 0.441722 0.399424C0.43555 0.399252 0.429417 0.400457 0.423759 0.402961C0.418102 0.405465 0.413062 0.409207 0.408998 0.413911C0.400584 0.422102 0.395481 0.433166 0.394682 0.444953C0.395193 0.455597 0.399145 0.465776 0.405931 0.473926L4.4657 4.58196C4.46968 4.58607 4.47446 4.5893 4.47974 4.59144C4.48502 4.59358 4.49069 4.59458 4.49637 4.59438C4.50205 4.59446 4.50768 4.5934 4.51294 4.59127C4.51821 4.58914 4.523 4.58597 4.52705 4.58196L8.58682 0.477029C8.59548 0.470068 8.60131 0.460121 8.60318 0.44909L8.6042 0.447021Z" fill="#fff"/>
</svg>
