<?xml version="1.0" encoding="utf-8"?>
<!-- Generator: Adobe Illustrator 23.0.3, SVG Export Plug-In . SVG Version: 6.00 Build 0)  -->
<svg version="1.1" id="Capa_1" xmlns="http://www.w3.org/2000/svg" xmlns:xlink="http://www.w3.org/1999/xlink" x="0px" y="0px"
	 viewBox="0 0 515 543" style="enable-background:new 0 0 515 543;" xml:space="preserve">
<style type="text/css">
	.st0{fill:#6E6D7A;}
	.st1{fill:#A1A1A1;}
</style>
<g>
	<g>
		<path class="st0" d="M290.4,364.3c4.7,4.7,12.3,4.7,17,0c4.7-4.8,4.7-12.4,0-17.2l-74.5-75.6l74.5-75.6c4.7-4.7,4.7-12.4,0-17.2
			c-4.7-4.7-12.3-4.7-17,0l-83,84.2c-4.6,4.6-4.6,12.6,0,17.2L290.4,364.3z"/>
	</g>
	<g>
		<path class="st1" d="M58.4,6h398.1c21.3,0,38.6,17.3,38.6,38.6v454c0,21.3-17.3,38.6-38.6,38.6H58.4c-21.3,0-38.6-17.3-38.6-38.6
			v-454C19.9,23.3,37.2,6,58.4,6z M456.6,529.9c17.3,0,31.4-14.1,31.4-31.4v-454c0-17.3-14.1-31.4-31.4-31.4H58.4
			C41.1,13.1,27,27.2,27,44.5v454c0,17.3,14.1,31.4,31.4,31.4H456.6z"/>
	</g>
</g>
</svg>
