<svg width="20" height="20" viewBox="0 0 20 20" fill="none" xmlns="http://www.w3.org/2000/svg">
<path d="M19.192 9.32593C19.1763 10.9573 18.738 12.5568 17.9199 13.9684C17.1018 15.3799 15.9317 16.5553 14.524 17.3798C13.1162 18.2044 11.5187 18.65 9.8874 18.6731C8.25608 18.6963 6.64661 18.2962 5.216 17.5119L0 19.1689L1.7 14.1519C0.814181 12.6979 0.346697 11.0276 0.349 9.32493C0.37457 6.84301 1.37845 4.47142 3.14255 2.72541C4.90664 0.979395 7.28844 0 9.7705 0C12.2526 0 14.6344 0.979395 16.3985 2.72541C18.1625 4.47142 19.1664 6.84301 19.192 9.32493V9.32593ZM9.769 1.46793C7.67724 1.46261 5.66875 2.2871 4.18404 3.76057C2.69932 5.23403 1.85958 7.23619 1.849 9.32793C1.84815 10.9852 2.37686 12.5993 3.358 13.9349L2.369 16.8529L5.412 15.8859C6.60295 16.6671 7.9823 17.1131 9.40515 17.1771C10.828 17.241 12.2418 16.9206 13.498 16.2495C14.7543 15.5783 15.8066 14.5812 16.5444 13.363C17.2822 12.1447 17.6783 10.7502 17.691 9.32593C17.6799 7.23419 16.8396 5.23224 15.3546 3.75915C13.8695 2.28606 11.8608 1.46208 9.769 1.46793ZM14.528 11.4769C14.469 11.3829 14.315 11.3249 14.085 11.2099C13.855 11.0949 12.718 10.5409 12.507 10.4659C12.296 10.3909 12.14 10.3499 11.986 10.5799C11.832 10.8099 11.386 11.3249 11.255 11.4799C11.124 11.6349 10.986 11.6529 10.755 11.5389C10.0762 11.2698 9.44867 10.8858 8.9 10.4039C8.39455 9.9418 7.96079 9.40693 7.613 8.81693C7.477 8.58793 7.599 8.46393 7.713 8.34993C7.827 8.23593 7.944 8.08193 8.06 7.94993C8.1552 7.8349 8.23303 7.70654 8.291 7.56893C8.32077 7.50579 8.33461 7.4363 8.3313 7.36657C8.32799 7.29683 8.30763 7.22897 8.272 7.16893C8.214 7.05393 7.753 5.92693 7.56 5.46893C7.367 5.01093 7.176 5.07693 7.04 5.07693C6.904 5.07693 6.751 5.05793 6.598 5.05793C6.48137 5.06041 6.36652 5.08702 6.26067 5.13607C6.15483 5.18512 6.06028 5.25555 5.983 5.34293C5.7226 5.58759 5.51621 5.88396 5.37707 6.21305C5.23792 6.54215 5.1691 6.89669 5.175 7.25393C5.24989 8.11919 5.57747 8.94335 6.117 9.62393C7.07961 11.1264 8.44761 12.3259 10.063 13.0839C12.412 14.0009 12.412 13.6949 12.835 13.6559C13.1558 13.5953 13.4603 13.4679 13.7287 13.282C13.9971 13.0961 14.2234 12.8559 14.393 12.5769C14.5463 12.2318 14.5933 11.8489 14.528 11.4769Z" fill="#3E8FE1"/>
</svg>
