<svg width="20" height="17" viewBox="0 0 20 17" fill="none" xmlns="http://www.w3.org/2000/svg">
<path d="M19.886 1.91529C19.138 2.24161 18.3469 2.45851 17.537 2.55929C18.391 2.05202 19.029 1.24888 19.33 0.302294C18.5309 0.776284 17.6566 1.1101 16.745 1.28929C16.1859 0.692641 15.4603 0.277886 14.6625 0.0988903C13.8647 -0.0801058 13.0315 -0.0150704 12.2711 0.285551C11.5107 0.586173 10.8582 1.10849 10.3985 1.78466C9.93874 2.46084 9.69294 3.25963 9.693 4.0773C9.68963 4.38983 9.72116 4.70176 9.787 5.0073C8.1657 4.92738 6.57951 4.50629 5.13205 3.77153C3.6846 3.03678 2.40845 2.00489 1.387 0.743296C0.862298 1.64023 0.699789 2.70363 0.932661 3.71633C1.16553 4.72904 1.77622 5.61464 2.64 6.19229C1.99548 6.17536 1.36445 6.00389 0.8 5.69229V5.7373C0.801938 6.67772 1.12711 7.5889 1.72101 8.31807C2.31491 9.04724 3.14142 9.55008 4.062 9.7423C3.71318 9.83415 3.3537 9.87921 2.993 9.8763C2.7339 9.88082 2.47506 9.85735 2.221 9.8063C2.4845 10.6153 2.99223 11.3228 3.67435 11.8314C4.35646 12.34 5.17943 12.6247 6.03 12.6463C4.58726 13.775 2.80783 14.3877 0.976 14.3863C0.649804 14.3885 0.323803 14.3698 0 14.3303C1.86408 15.5317 4.03631 16.1673 6.254 16.1603C7.78015 16.1704 9.29311 15.8772 10.705 15.2979C12.117 14.7185 13.3998 13.8644 14.479 12.7852C15.5581 11.7061 16.4122 10.4233 16.9916 9.01134C17.5709 7.59941 17.8641 6.08645 17.854 4.56029C17.854 4.38029 17.848 4.20629 17.839 4.03329C18.6446 3.45777 19.3383 2.74 19.886 1.91529Z" fill="#3E8FE1"/>
</svg>
