<svg width="21" height="18" viewBox="0 0 21 18" fill="none" xmlns="http://www.w3.org/2000/svg">
<path d="M1.29195 7.56505L13.7919 2.41505C15.0289 1.87405 19.2049 0.157044 19.2049 0.157044C19.2049 0.157044 21.1379 -0.600954 20.9679 1.22405C20.9219 1.98205 20.4889 4.59605 20.0549 7.44205L18.7089 15.871C18.7089 15.871 18.5989 17.1091 17.6869 17.3251C16.7749 17.541 15.2739 16.5671 15.0109 16.3661C14.7939 16.2111 10.9899 13.799 9.59795 12.608C9.45668 12.5118 9.34184 12.3816 9.26398 12.2294C9.18611 12.0772 9.1477 11.9079 9.15228 11.737C9.15686 11.5661 9.20428 11.3991 9.29018 11.2513C9.37608 11.1035 9.49773 10.9796 9.64395 10.891C11.5769 9.12805 13.8819 6.91605 15.2739 5.52405C15.9239 4.87405 16.5579 3.37404 13.8819 5.19904L6.31895 10.288C5.93145 10.4645 5.5119 10.5595 5.08621 10.5675C4.66052 10.5754 4.23773 10.4959 3.84394 10.334C2.23494 9.85505 0.363945 9.20505 0.363945 9.20505C0.363945 9.20505 -0.904053 8.41605 1.29195 7.56605V7.56505Z" fill="#929292"/>
</svg>
