<svg width="20" height="18" viewBox="0 0 20 18" fill="none" xmlns="http://www.w3.org/2000/svg">
<path d="M19.886 2.91285C19.138 3.23917 18.3469 3.45606 17.537 3.55685C18.391 3.04958 19.029 2.24644 19.33 1.29985C18.5309 1.77384 17.6566 2.10766 16.745 2.28685C16.1859 1.6902 15.4603 1.27544 14.6625 1.09645C13.8647 0.917453 13.0315 0.982488 12.2711 1.28311C11.5107 1.58373 10.8582 2.10605 10.3985 2.78222C9.93874 3.4584 9.69294 4.25719 9.693 5.07485C9.68963 5.38739 9.72116 5.69932 9.787 6.00485C8.1657 5.92494 6.57951 5.50385 5.13205 4.76909C3.6846 4.03433 2.40845 3.00245 1.387 1.74085C0.862298 2.63779 0.699789 3.70119 0.932661 4.71389C1.16553 5.7266 1.77622 6.6122 2.64 7.18985C1.99548 7.17292 1.36445 7.00145 0.8 6.68985V6.73485C0.801938 7.67528 1.12711 8.58645 1.72101 9.31563C2.31491 10.0448 3.14142 10.5476 4.062 10.7399C3.71318 10.8317 3.3537 10.8768 2.993 10.8739C2.7339 10.8784 2.47506 10.8549 2.221 10.8039C2.4845 11.6129 2.99223 12.3203 3.67435 12.8289C4.35646 13.3375 5.17943 13.6222 6.03 13.6439C4.58726 14.7726 2.80783 15.3852 0.976 15.3839C0.649804 15.3861 0.323803 15.3673 0 15.3279C1.86408 16.5293 4.03631 17.1649 6.254 17.1579C7.78015 17.1679 9.29311 16.8748 10.705 16.2954C12.117 15.716 13.3998 14.862 14.479 13.7828C15.5581 12.7036 16.4122 11.4208 16.9916 10.0089C17.5709 8.59696 17.8641 7.084 17.854 5.55785C17.854 5.37785 17.848 5.20385 17.839 5.03085C18.6446 4.45533 19.3383 3.73756 19.886 2.91285Z" fill="#929292"/>
</svg>
