<svg width="20" height="20" viewBox="0 0 20 20" fill="none" xmlns="http://www.w3.org/2000/svg">
<path d="M19.192 9.34888C19.1763 10.9803 18.738 12.5798 17.9199 13.9913C17.1018 15.4028 15.9317 16.5782 14.524 17.4028C13.1162 18.2273 11.5187 18.6729 9.8874 18.6961C8.25608 18.7192 6.64661 18.3192 5.216 17.5349L0 19.1919L1.7 14.1749C0.814181 12.7208 0.346697 11.0505 0.349 9.34788C0.37457 6.86596 1.37845 4.49437 3.14255 2.74836C4.90664 1.00234 7.28844 0.0229492 9.7705 0.0229492C12.2526 0.0229492 14.6344 1.00234 16.3985 2.74836C18.1625 4.49437 19.1664 6.86596 19.192 9.34788V9.34888ZM9.769 1.49088C7.67724 1.48556 5.66875 2.31005 4.18404 3.78351C2.69932 5.25698 1.85958 7.25914 1.849 9.35088C1.84815 11.0081 2.37686 12.6223 3.358 13.9579L2.369 16.8759L5.412 15.9089C6.60295 16.6901 7.9823 17.136 9.40515 17.2C10.828 17.264 12.2418 16.9436 13.498 16.2724C14.7543 15.6013 15.8066 14.6042 16.5444 13.3859C17.2822 12.1676 17.6783 10.7731 17.691 9.34888C17.6799 7.25714 16.8396 5.25519 15.3546 3.7821C13.8695 2.30901 11.8608 1.48503 9.769 1.49088ZM14.528 11.4999C14.469 11.4059 14.315 11.3479 14.085 11.2329C13.855 11.1179 12.718 10.5639 12.507 10.4889C12.296 10.4139 12.14 10.3729 11.986 10.6029C11.832 10.8329 11.386 11.3479 11.255 11.5029C11.124 11.6579 10.986 11.6759 10.755 11.5619C10.0762 11.2927 9.44867 10.9088 8.9 10.4269C8.39455 9.96475 7.96079 9.42987 7.613 8.83988C7.477 8.61088 7.599 8.48688 7.713 8.37288C7.827 8.25888 7.944 8.10488 8.06 7.97288C8.1552 7.85785 8.23303 7.72949 8.291 7.59188C8.32077 7.52874 8.33461 7.45925 8.3313 7.38952C8.32799 7.31978 8.30763 7.25192 8.272 7.19188C8.214 7.07688 7.753 5.94988 7.56 5.49188C7.367 5.03388 7.176 5.09988 7.04 5.09988C6.904 5.09988 6.751 5.08088 6.598 5.08088C6.48137 5.08336 6.36652 5.10997 6.26067 5.15902C6.15483 5.20807 6.06028 5.2785 5.983 5.36588C5.7226 5.61054 5.51621 5.90691 5.37707 6.236C5.23792 6.56509 5.1691 6.91963 5.175 7.27688C5.24989 8.14214 5.57747 8.9663 6.117 9.64688C7.07961 11.1494 8.44761 12.3489 10.063 13.1069C12.412 14.0239 12.412 13.7179 12.835 13.6789C13.1558 13.6182 13.4603 13.4908 13.7287 13.3049C13.9971 13.1191 14.2234 12.8789 14.393 12.5999C14.5463 12.2548 14.5933 11.8718 14.528 11.4999Z" fill="#929292"/>
</svg>
